# xmcd CD database file
#
# Track frame offsets:
#	150
#	11858
#	34097
#	51257
#	76961
#	100444
#	125100
#	141979
#	162921
#	182694
#	202047
#	222160
#	245442
#
# Disc length: 3658 seconds
#
# Revision: 0
# Processed by: cddbd v1.5.2PL0 Copyright (c) Steve Scherf et al.
# Submitted via: CDex 1.81
#
DISCID=c00e480d
DTITLE=The Bosshoss - Dos Bros live
DYEAR=2016
DGENRE=Country
TTITLE0=A COWBOYS WORK IS NEVER DON
TTITLE1=WAIT FOR ME
TTITLE2=DO IT
TTITLE3=I LIKE IT LIKE THAT
TTITLE4=SHE IS A LITTLE B
TTITLE5=MY PERSONAL SONG
TTITLE6=WHAT IF
TTITLE7=JOLENE
TTITLE8=TODAY TOMORROW TOO LONG TOO LATE
TTITLE9=DOS BROS
TTITLE10=DON'T GIMME THAT
TTITLE11=LADY JD
TTITLE12=SHAKE and SHOUT (FEAT: SAMY DELUXE)
EXTD=YEAR: 2016
EXTT0=
EXTT1=
EXTT2=
EXTT3=
EXTT4=
EXTT5=
EXTT6=
EXTT7=
EXTT8=
EXTT9=
EXTT10=
EXTT11=
EXTT12=
PLAYORDER=
